<mxfile host="app.diagrams.net" modified="2021-03-31T05:40:48.393Z" agent="5.0 (Windows NT 10.0; Win64; x64) AppleWebKit/537.36 (KHTML, like Gecko) Chrome/89.0.4389.90 Safari/537.36 Edg/89.0.774.63" etag="fRInXGtNJ4sxKZxo425a" version="14.2.4" type="github">
  <diagram id="C5vinGJHW-rtovE41A46" name="Page-1">
    <mxGraphModel dx="1547" dy="429" grid="1" gridSize="10" guides="1" tooltips="1" connect="1" arrows="1" fold="1" page="1" pageScale="1" pageWidth="827" pageHeight="1169" math="0" shadow="0">
      <root>
        <mxCell id="0" />
        <mxCell id="1" parent="0" />
        <mxCell id="gqFwRVO5_w8t7Y9dCftd-1" value="Kafka consumer" style="rounded=1;whiteSpace=wrap;html=1;fillColor=#d5e8d4;strokeColor=#82b366;" vertex="1" parent="1">
          <mxGeometry x="-70" y="190" width="120" height="60" as="geometry" />
        </mxCell>
        <mxCell id="gqFwRVO5_w8t7Y9dCftd-2" value="规则数量：200&lt;br&gt;吞吐量：5w eps" style="rounded=1;whiteSpace=wrap;html=1;fillColor=#fff2cc;strokeColor=#d6b656;" vertex="1" parent="1">
          <mxGeometry x="300" y="80" width="120" height="80" as="geometry" />
        </mxCell>
        <mxCell id="gqFwRVO5_w8t7Y9dCftd-3" value="5w eps" style="endArrow=classic;html=1;exitX=1;exitY=0.5;exitDx=0;exitDy=0;entryX=0;entryY=0.5;entryDx=0;entryDy=0;" edge="1" parent="1" source="gqFwRVO5_w8t7Y9dCftd-19" target="gqFwRVO5_w8t7Y9dCftd-2">
          <mxGeometry x="0.001" relative="1" as="geometry">
            <mxPoint x="130" y="250" as="sourcePoint" />
            <mxPoint x="290" y="250" as="targetPoint" />
            <Array as="points">
              <mxPoint x="200" y="220" />
              <mxPoint x="240" y="120" />
            </Array>
            <mxPoint as="offset" />
          </mxGeometry>
        </mxCell>
        <mxCell id="gqFwRVO5_w8t7Y9dCftd-4" value="数据源采集日志" style="rounded=1;whiteSpace=wrap;html=1;dashed=1;" vertex="1" parent="1">
          <mxGeometry x="-260" y="190" width="120" height="60" as="geometry" />
        </mxCell>
        <mxCell id="gqFwRVO5_w8t7Y9dCftd-9" value="5w eps" style="endArrow=classic;html=1;exitX=1;exitY=0.5;exitDx=0;exitDy=0;entryX=0;entryY=0.5;entryDx=0;entryDy=0;" edge="1" parent="1" source="gqFwRVO5_w8t7Y9dCftd-4" target="gqFwRVO5_w8t7Y9dCftd-1">
          <mxGeometry relative="1" as="geometry">
            <mxPoint x="90" y="240" as="sourcePoint" />
            <mxPoint x="165" y="240" as="targetPoint" />
            <Array as="points" />
          </mxGeometry>
        </mxCell>
        <mxCell id="gqFwRVO5_w8t7Y9dCftd-10" value="&lt;span style=&quot;color: rgb(0 , 0 , 0) ; font-family: &amp;#34;helvetica&amp;#34; ; font-size: 12px ; font-style: normal ; font-weight: 400 ; letter-spacing: normal ; text-align: center ; text-indent: 0px ; text-transform: none ; word-spacing: 0px ; background-color: rgb(248 , 249 , 250) ; display: inline ; float: none&quot;&gt;流式引擎-1&lt;/span&gt;" style="text;whiteSpace=wrap;html=1;" vertex="1" parent="1">
          <mxGeometry x="325" y="70" width="70" height="30" as="geometry" />
        </mxCell>
        <mxCell id="gqFwRVO5_w8t7Y9dCftd-11" value="规则数量：200&lt;br&gt;吞吐量：5w eps" style="rounded=1;whiteSpace=wrap;html=1;fillColor=#fff2cc;strokeColor=#d6b656;" vertex="1" parent="1">
          <mxGeometry x="300" y="290" width="120" height="80" as="geometry" />
        </mxCell>
        <mxCell id="gqFwRVO5_w8t7Y9dCftd-12" value="&lt;span style=&quot;color: rgb(0 , 0 , 0) ; font-family: &amp;#34;helvetica&amp;#34; ; font-size: 12px ; font-style: normal ; font-weight: 400 ; letter-spacing: normal ; text-align: center ; text-indent: 0px ; text-transform: none ; word-spacing: 0px ; background-color: rgb(248 , 249 , 250) ; display: inline ; float: none&quot;&gt;流式引擎-4&lt;/span&gt;" style="text;whiteSpace=wrap;html=1;" vertex="1" parent="1">
          <mxGeometry x="325" y="280" width="70" height="30" as="geometry" />
        </mxCell>
        <mxCell id="gqFwRVO5_w8t7Y9dCftd-13" value="&lt;span style=&quot;font-size: 30px&quot;&gt;......&lt;/span&gt;" style="text;html=1;align=center;verticalAlign=middle;whiteSpace=wrap;rounded=0;" vertex="1" parent="1">
          <mxGeometry x="295" y="210" width="130" height="20" as="geometry" />
        </mxCell>
        <mxCell id="gqFwRVO5_w8t7Y9dCftd-14" value="5w eps" style="endArrow=classic;html=1;exitX=1;exitY=0.5;exitDx=0;exitDy=0;entryX=0;entryY=0.5;entryDx=0;entryDy=0;" edge="1" parent="1" source="gqFwRVO5_w8t7Y9dCftd-19" target="gqFwRVO5_w8t7Y9dCftd-11">
          <mxGeometry relative="1" as="geometry">
            <mxPoint x="180" y="230" as="sourcePoint" />
            <mxPoint x="310" y="110" as="targetPoint" />
            <Array as="points">
              <mxPoint x="200" y="220" />
              <mxPoint x="240" y="330" />
            </Array>
          </mxGeometry>
        </mxCell>
        <mxCell id="gqFwRVO5_w8t7Y9dCftd-19" value="线程间通信" style="rounded=1;whiteSpace=wrap;html=1;fillColor=#dae8fc;strokeColor=#6c8ebf;" vertex="1" parent="1">
          <mxGeometry x="110" y="205" width="80" height="30" as="geometry" />
        </mxCell>
        <mxCell id="gqFwRVO5_w8t7Y9dCftd-20" value="5w eps" style="endArrow=classic;html=1;exitX=1;exitY=0.5;exitDx=0;exitDy=0;entryX=0;entryY=0.5;entryDx=0;entryDy=0;" edge="1" parent="1" source="gqFwRVO5_w8t7Y9dCftd-1" target="gqFwRVO5_w8t7Y9dCftd-19">
          <mxGeometry relative="1" as="geometry">
            <mxPoint x="-110" y="230" as="sourcePoint" />
            <mxPoint x="90" y="240" as="targetPoint" />
            <Array as="points" />
          </mxGeometry>
        </mxCell>
        <mxCell id="gqFwRVO5_w8t7Y9dCftd-21" value="Main Thread" style="text;html=1;strokeColor=none;fillColor=none;align=center;verticalAlign=middle;whiteSpace=wrap;rounded=0;" vertex="1" parent="1">
          <mxGeometry x="-55" y="170" width="90" height="20" as="geometry" />
        </mxCell>
        <mxCell id="gqFwRVO5_w8t7Y9dCftd-22" value="Thread -1" style="text;html=1;strokeColor=none;fillColor=none;align=center;verticalAlign=middle;whiteSpace=wrap;rounded=0;" vertex="1" parent="1">
          <mxGeometry x="315" y="160" width="90" height="20" as="geometry" />
        </mxCell>
        <mxCell id="gqFwRVO5_w8t7Y9dCftd-23" value="Thread -4" style="text;html=1;strokeColor=none;fillColor=none;align=center;verticalAlign=middle;whiteSpace=wrap;rounded=0;" vertex="1" parent="1">
          <mxGeometry x="315" y="370" width="90" height="20" as="geometry" />
        </mxCell>
        <mxCell id="gqFwRVO5_w8t7Y9dCftd-25" value="&lt;h1 style=&quot;font-size: 18px&quot;&gt;高性能线程间通信&lt;/h1&gt;&lt;p&gt;&lt;font style=&quot;font-size: 12px&quot;&gt;不能引入额外的overhead&lt;/font&gt;&lt;/p&gt;&lt;p&gt;&lt;font style=&quot;font-size: 12px&quot;&gt;支持广播模型&lt;/font&gt;&lt;/p&gt;" style="text;html=1;strokeColor=#666666;fillColor=#f5f5f5;spacing=5;spacingTop=-20;whiteSpace=wrap;overflow=hidden;rounded=0;dashed=1;fontColor=#333333;" vertex="1" parent="1">
          <mxGeometry y="20" width="205" height="90" as="geometry" />
        </mxCell>
        <mxCell id="gqFwRVO5_w8t7Y9dCftd-26" value="" style="endArrow=classic;html=1;exitX=0.5;exitY=1;exitDx=0;exitDy=0;entryX=0.5;entryY=0;entryDx=0;entryDy=0;" edge="1" parent="1" source="gqFwRVO5_w8t7Y9dCftd-25" target="gqFwRVO5_w8t7Y9dCftd-19">
          <mxGeometry width="50" height="50" relative="1" as="geometry">
            <mxPoint x="275" y="255" as="sourcePoint" />
            <mxPoint x="145" y="205" as="targetPoint" />
            <Array as="points">
              <mxPoint x="130" y="135" />
              <mxPoint x="150" y="150" />
            </Array>
          </mxGeometry>
        </mxCell>
        <mxCell id="gqFwRVO5_w8t7Y9dCftd-28" value="" style="verticalLabelPosition=bottom;verticalAlign=top;html=1;shadow=0;dashed=0;strokeWidth=1;shape=mxgraph.ios.iCheckIcon;fillColor2=#97D077;strokeColor=#ffffff;fillColor=#97D077;" vertex="1" parent="1">
          <mxGeometry x="-120" y="180" width="30" height="30" as="geometry" />
        </mxCell>
      </root>
    </mxGraphModel>
  </diagram>
</mxfile>
